<?xml version="1.0" encoding="UTF-8"?>
<svg xmlns="http://www.w3.org/2000/svg" xmlns:xlink="http://www.w3.org/1999/xlink" width="200pt" height="283pt" viewBox="0 0 200 283" version="1.1">
<g id="surface1">
<path style=" stroke:none;fill-rule:nonzero;fill:rgb(96.078431%,56.470588%,41.568627%);fill-opacity:1;" d="M 112.6875 113.761719 C 112.703125 124.21875 112.742188 134.683594 112.714844 145.140625 C 112.710938 148.03125 109.859375 150.875 106.371094 151.621094 C 104.140625 152.097656 101.917969 152.058594 99.875 150.878906 C 97.023438 149.226562 96.425781 146.132812 98.5 143.609375 C 100.8125 140.796875 103.867188 139.597656 107.433594 140.125 C 108.832031 140.332031 109.046875 139.988281 109.042969 138.746094 C 109.015625 132.648438 109.054688 126.554688 109.070312 120.457031 C 109.519531 118.546875 110.351562 116.785156 111.167969 115.019531 C 111.460938 114.378906 111.714844 113.613281 112.6875 113.761719 Z M 112.6875 113.761719 "/>
<path style=" stroke:none;fill-rule:nonzero;fill:rgb(94.117647%,36.862745%,38.431373%);fill-opacity:1;" d="M 74.429688 155.746094 C 71.851562 156.675781 69.351562 156.78125 67.011719 155.085938 C 67.527344 154.738281 67.890625 154.300781 68.144531 153.703125 C 69.054688 151.546875 69.945312 149.382812 70.902344 147.246094 C 71.285156 146.390625 71.3125 145.664062 70.660156 144.960938 C 71.941406 144.226562 73.363281 144.117188 74.699219 144.511719 C 76.25 144.96875 76.363281 144.289062 76.355469 143.0625 C 76.277344 134.085938 76.238281 125.113281 76.199219 116.136719 C 76.195312 115.425781 76.027344 114.6875 76.40625 114.003906 C 77.15625 114.625 77.0625 115.507812 77.078125 116.328125 C 77.125 119.347656 77.101562 122.363281 76.941406 125.371094 C 77.078125 127.917969 76.914062 130.476562 77.011719 133.125 C 77.535156 132.304688 77.683594 131.390625 78.226562 130.691406 C 78.636719 130.152344 78.980469 129.339844 79.921875 129.949219 C 80.023438 134.085938 79.929688 138.222656 79.976562 142.359375 C 79.984375 142.992188 79.828125 143.582031 79.621094 144.152344 C 78.324219 147.730469 76.742188 151.1875 75.199219 154.65625 C 75.019531 155.0625 74.71875 155.402344 74.429688 155.746094 Z M 74.429688 155.746094 "/>
<path style=" stroke:none;fill-rule:nonzero;fill:rgb(93.72549%,29.411765%,37.254902%);fill-opacity:1;" d="M 76.488281 125.808594 C 76.460938 121.875 76.433594 117.9375 76.40625 114.003906 C 78.835938 112.710938 81.378906 111.699219 84.054688 111.050781 C 84.425781 110.960938 84.789062 110.898438 85.121094 110.703125 C 86.226562 110.390625 86.230469 111.136719 86.085938 111.8125 C 85.878906 112.785156 85.429688 113.683594 84.917969 114.542969 C 83.792969 115.820312 81.980469 115.78125 80.691406 116.734375 C 79.875 119.429688 78.945312 122.082031 77.617188 124.566406 C 77.347656 125.0625 77.320312 125.8125 76.488281 125.808594 Z M 76.488281 125.808594 "/>
<path style=" stroke:none;fill-rule:nonzero;fill:rgb(93.72549%,31.764706%,37.647059%);fill-opacity:1;" d="M 76.488281 125.808594 C 77.507812 123.527344 78.46875 121.21875 79.566406 118.976562 C 80.023438 118.046875 79.335938 116.925781 80.203125 116.132812 C 80.273438 116.214844 80.332031 116.304688 80.394531 116.394531 C 80.851562 117.019531 80.292969 118.082031 81.0625 118.460938 C 81.730469 118.785156 82.527344 118.167969 83.300781 118.300781 C 83.902344 118.371094 84.589844 118.398438 84.667969 119.179688 C 84.746094 120.011719 84.101562 120.414062 83.496094 120.804688 C 82.453125 121.257812 81.398438 121.699219 80.253906 121.839844 C 79.640625 122.746094 80.058594 123.757812 79.976562 124.71875 C 79.824219 126.429688 80.199219 128.15625 79.765625 129.859375 C 78.734375 130.296875 78.480469 131.277344 78.0625 132.179688 C 77.675781 133.007812 77.601562 134.019531 76.484375 134.875 C 76.488281 131.6875 76.488281 128.75 76.488281 125.808594 Z M 76.488281 125.808594 "/>
<path style=" stroke:none;fill-rule:nonzero;fill:rgb(93.72549%,31.764706%,37.647059%);fill-opacity:1;" d="M 70.660156 144.960938 C 71.910156 144.882812 72.257812 145.363281 71.738281 146.546875 C 70.59375 149.140625 69.488281 151.746094 68.410156 154.367188 C 68.121094 155.074219 67.707031 155.296875 67.011719 155.085938 C 64.234375 153.566406 63.738281 150.308594 66.003906 147.695312 C 67.214844 146.296875 68.710938 145.195312 70.660156 144.960938 Z M 70.660156 144.960938 "/>
<path style=" stroke:none;fill-rule:nonzero;fill:rgb(94.509804%,40%,38.823529%);fill-opacity:1;" d="M 79.769531 129.859375 C 79.78125 127.742188 79.769531 125.621094 79.808594 123.5 C 79.816406 122.925781 79.5625 122.246094 80.261719 121.84375 C 80.207031 122.5625 80.105469 123.28125 80.105469 124.003906 C 80.089844 132.09375 80.089844 140.1875 80.082031 148.28125 C 80.078125 152.109375 78.1875 154.605469 74.433594 155.75 C 75.128906 152.515625 76.875 149.695312 78.066406 146.65625 C 79.039062 144.1875 80.078125 141.84375 79.855469 139.046875 C 79.609375 136 79.78125 132.925781 79.769531 129.859375 Z M 79.769531 129.859375 "/>
<path style=" stroke:none;fill-rule:nonzero;fill:rgb(96.078431%,54.117647%,40.784314%);fill-opacity:1;" d="M 112.6875 113.761719 C 111.457031 114.574219 111.347656 116.03125 110.761719 117.199219 C 110.214844 118.292969 109.816406 119.464844 109.070312 120.453125 C 109.054688 120.011719 108.960938 119.550781 109.035156 119.125 C 109.328125 117.449219 108.523438 116.945312 107.011719 117.128906 C 106.707031 115.699219 107.644531 114.691406 108.214844 113.5625 C 108.398438 113.132812 108.570312 112.695312 108.710938 112.246094 C 109.457031 110 110.507812 107.875 111.449219 105.714844 C 110.984375 105.3125 110.269531 105.570312 109.96875 104.984375 C 110.453125 104.632812 111.03125 104.710938 111.574219 104.636719 C 112.449219 104.515625 112.765625 104.898438 112.746094 105.761719 C 112.703125 108.429688 112.703125 111.09375 112.6875 113.761719 Z M 112.6875 113.761719 "/>
<path style=" stroke:none;fill-rule:nonzero;fill:rgb(94.117647%,36.470588%,38.431373%);fill-opacity:1;" d="M 84.53125 114.5 C 84.882812 113.636719 85.21875 112.769531 85.59375 111.914062 C 85.855469 111.324219 85.941406 110.847656 85.121094 110.699219 C 88.027344 109.367188 91.140625 108.714844 94.214844 107.941406 C 95.054688 108.339844 94.886719 109.003906 94.640625 109.65625 C 94.304688 110.558594 93.800781 111.363281 93.164062 112.082031 C 90.769531 113.46875 88.039062 113.875 85.460938 114.726562 C 85.148438 114.835938 84.800781 114.738281 84.53125 114.5 Z M 84.53125 114.5 "/>
<path style=" stroke:none;fill-rule:nonzero;fill:rgb(95.294118%,49.803922%,40.392157%);fill-opacity:1;" d="M 109.972656 104.984375 C 110.671875 105.117188 111.410156 104.847656 112.195312 105.226562 C 111.152344 107.636719 110.113281 110.019531 109.074219 112.40625 C 108.003906 110.582031 107.433594 110.226562 104.9375 109.816406 C 104.773438 109.789062 104.625 109.703125 104.480469 109.625 C 104.039062 108.277344 105.011719 107.324219 105.582031 106.367188 C 106.027344 105.628906 105.054688 105.992188 105.257812 105.652344 C 106.789062 105.144531 108.371094 104.988281 109.972656 104.984375 Z M 109.972656 104.984375 "/>
<path style=" stroke:none;fill-rule:nonzero;fill:rgb(94.901961%,45.098039%,39.607843%);fill-opacity:1;" d="M 105.257812 105.648438 C 105.546875 105.789062 106.261719 105.433594 105.945312 106.289062 C 105.53125 107.394531 105.316406 108.597656 104.332031 109.410156 C 104.261719 109.5625 104.207031 109.773438 104.054688 109.820312 C 101.902344 110.511719 99.765625 111.320312 97.429688 110.949219 C 97.238281 110.804688 97.089844 110.539062 97.292969 110.402344 C 98.667969 109.480469 99.0625 107.886719 99.9375 106.628906 C 101.652344 105.980469 103.449219 105.777344 105.257812 105.648438 Z M 105.257812 105.648438 "/>
<path style=" stroke:none;fill-rule:nonzero;fill:rgb(94.509804%,40.784314%,39.215686%);fill-opacity:1;" d="M 99.941406 106.628906 C 99.902344 108.554688 99.097656 109.992188 97.289062 110.785156 C 96.332031 111.972656 94.574219 112.378906 92.925781 111.800781 C 93.394531 110.527344 94.890625 109.597656 94.214844 107.945312 C 96.039062 107.132812 98.042969 107.128906 99.941406 106.628906 Z M 99.941406 106.628906 "/>
<path style=" stroke:none;fill-rule:nonzero;fill:rgb(95.294118%,50.196078%,40.392157%);fill-opacity:1;" d="M 108.6875 113.707031 C 107.890625 114.734375 107.621094 116.011719 107.011719 117.128906 C 104.78125 117.328125 102.546875 117.527344 100.316406 117.726562 C 101.390625 115.988281 101.390625 115.988281 101.035156 114.320312 C 103.542969 113.589844 106.035156 112.632812 108.6875 113.707031 Z M 108.6875 113.707031 "/>
<path style=" stroke:none;fill-rule:nonzero;fill:rgb(94.901961%,45.098039%,40.392157%);fill-opacity:1;" d="M 100.902344 114.726562 C 101.332031 114.863281 102.152344 114.542969 102.101562 115.195312 C 102.042969 115.988281 101.996094 116.964844 101.054688 117.417969 C 100.8125 117.535156 100.5625 117.625 100.316406 117.726562 C 98.296875 117.964844 96.273438 118.199219 94.253906 118.4375 C 94.585938 117.441406 95.832031 116.738281 95.234375 115.4375 C 96.242188 114.566406 97.488281 114.636719 98.691406 114.550781 C 99.273438 114.613281 99.859375 114.636719 100.445312 114.558594 C 100.613281 114.570312 100.765625 114.621094 100.902344 114.726562 Z M 100.902344 114.726562 "/>
<path style=" stroke:none;fill-rule:nonzero;fill:rgb(94.117647%,37.647059%,39.215686%);fill-opacity:1;" d="M 83.5 120.808594 C 83.625 120.5625 83.710938 120.285156 83.878906 120.078125 C 84.828125 118.902344 84.109375 118.746094 83.089844 118.757812 C 83.105469 118.292969 83.425781 118.03125 83.792969 117.925781 C 86.121094 117.234375 88.398438 116.277344 90.910156 116.519531 C 91.785156 117.710938 91.601562 118.472656 90.390625 119.011719 C 89.898438 119.226562 89.3125 119.144531 88.878906 119.515625 C 87.089844 119.945312 85.292969 120.375 83.5 120.808594 Z M 83.5 120.808594 "/>
<path style=" stroke:none;fill-rule:nonzero;fill:rgb(94.509804%,40.784314%,39.215686%);fill-opacity:1;" d="M 88.886719 119.511719 C 89.683594 118.839844 91.175781 118.847656 91.085938 117.308594 C 91.078125 117.117188 90.925781 116.9375 90.839844 116.753906 C 92.019531 115.257812 93.597656 115.472656 95.183594 115.742188 C 96.433594 115.726562 96.09375 116.339844 95.800781 117.09375 C 95.503906 117.867188 94.789062 118.019531 94.253906 118.4375 C 92.464844 118.796875 90.671875 119.15625 88.886719 119.511719 Z M 88.886719 119.511719 "/>
<path style=" stroke:none;fill-rule:nonzero;fill:rgb(98.823529%,87.45098%,85.882353%);fill-opacity:1;" d="M 95.183594 115.742188 C 93.796875 116.359375 92.1875 116.003906 90.839844 116.753906 C 88.21875 117.269531 85.597656 117.789062 83.089844 118.753906 C 82.980469 118.757812 82.863281 118.746094 82.761719 118.773438 C 79.855469 119.359375 79.855469 119.363281 80.207031 116.132812 C 81.648438 115.585938 83.089844 115.042969 84.53125 114.5 C 87.332031 113.597656 90.128906 112.699219 92.925781 111.800781 C 94.410156 111.585938 95.878906 111.308594 97.289062 110.785156 C 99.636719 110.328125 101.984375 109.871094 104.332031 109.414062 C 105.316406 109.328125 106.3125 109.308594 107.285156 109.136719 C 108.503906 108.925781 109.222656 109.125 109.035156 110.589844 C 108.957031 111.1875 109.054688 111.800781 109.070312 112.410156 C 108.996094 112.859375 109.027344 113.34375 108.683594 113.710938 C 106.046875 113.730469 103.46875 114.164062 100.902344 114.730469 C 100.902344 114.730469 100.765625 114.714844 100.765625 114.714844 L 100.636719 114.75 C 100.105469 115.160156 99.417969 114.726562 98.875 115.070312 C 97.605469 115.0625 96.371094 115.28125 95.183594 115.742188 Z M 95.183594 115.742188 "/>
<path style=" stroke:none;fill-rule:nonzero;fill:rgb(95.294118%,50.196078%,40.392157%);fill-opacity:1;" d="M 98.878906 115.066406 C 99.410156 114.667969 100.035156 114.765625 100.636719 114.746094 C 100.132812 115.296875 99.484375 115.046875 98.878906 115.066406 Z M 98.878906 115.066406 "/>
</g>
</svg>
